<svg t="1613305335774" class="icon" viewBox="0 0 1024 1024" version="1.1"
    xmlns="http://www.w3.org/2000/svg" p-id="37880" width="200" height="200">
    <path d="M860.928 527.872c-13.312-27.2-40.32-44.992-70.528-46.528-3.392-0.384-12.16-0.96-22.848 0.576-1.664-17.6-8.064-34.112-18.752-47.616 22.144-17.088 35.648-43.52 35.648-72.576 0-50.88-41.408-92.288-92.416-92.288-14.976 0-29.824 3.776-42.752 10.688C635.776 245.568 602.368 221.12 563.2 221.12c-5.056 0-9.92 0.512-14.784 1.344C546.496 216.768 544.256 212.864 543.488 211.712c-7.872-14.848-20.224-26.88-35.456-34.688C467.2 156.032 416.768 172.352 395.776 213.312c-0.576 1.344-1.152 2.496-1.664 3.84C392.768 216.384 391.616 215.808 390.336 215.104 370.432 204.992 347.968 203.2 326.592 210.048 305.344 216.896 288.128 231.616 278.016 251.456c-4.672 8.96-7.296 18.496-8.448 28.096C263.552 278.656 257.728 278.016 252.48 278.016c-14.464 0-28.672 1.92-42.56 5.888L191.168 289.28l3.968 19.136c1.152 5.056 53.44 228.224 74.816 319.36l-112.896 113.088L155.584 746.24c-0.96 3.968-8.64 39.552 30.208 78.4 26.816 26.816 51.968 31.488 66.368 31.488 6.4 0 10.688-1.152 12.032-1.344l5.44-1.472 112.128-111.936 345.216 77.056 4.288-20.608c0.96-3.584 4.288-20.032 4.288-33.344 3.584 0.576 7.104 0.96 10.688 0.96 12.544 0 25.344-2.816 37.12-8.64 41.28-20.224 58.112-70.528 37.888-111.744-0.576-1.344-1.344-2.432-1.856-3.776 1.152-0.576 2.432-1.152 3.776-1.664C864.32 619.136 881.344 569.088 860.928 527.872zM613.632 313.344c0 0.768-0.192 1.472-0.384 2.24L612.864 318.592c-0.96 9.472 4.672 18.496 13.504 21.76 8.832 3.392 18.944 0.32 24.576-7.488 9.344-13.504 24.768-21.568 41.088-21.568 27.968 0 50.432 22.656 50.432 50.432 0 22.144-14.464 41.408-35.968 48-7.872 2.432-13.696 9.216-14.656 17.408-1.152 8.256 2.816 16.128 9.92 20.416 15.36 9.344 24.576 25.472 24.576 43.136 0 27.776-22.528 50.24-50.432 50.24-16.32 0-31.68-8.064-41.28-21.568C629.76 512.256 620.736 508.928 612.48 511.168 604.032 513.216 597.696 520.32 596.736 528.96 593.728 554.112 572.352 573.248 547.072 573.248c-27.776 0-50.432-22.528-50.432-50.432 0-15.168 6.912-26.432 12.736-33.024 6.4-7.296 6.912-17.984 1.344-26.048C506.56 458.112 500.16 455.104 493.632 455.104c-2.624 0-5.44 0.576-8.064 1.472C479.552 459.2 473.024 460.544 466.432 460.544 438.656 460.544 416 437.824 416 410.112S438.656 359.68 466.432 359.68c8.256 0 16.512 2.24 24.576 6.72 8.256 4.48 18.368 3.136 24.96-3.584 6.72-6.592 8.064-16.896 3.584-25.024-4.48-7.872-6.72-16.128-6.72-24.512 0-27.776 22.656-50.304 50.432-50.304S613.632 285.568 613.632 313.344zM315.328 270.528c5.056-9.92 13.696-17.28 24.192-20.608s21.76-2.56 31.68 2.496c8.256 4.096 14.656 10.816 18.56 19.072 4.48 9.408 15.36 14.144 25.344 10.88 9.92-3.2 15.936-13.312 14.272-23.616C427.648 249.6 428.928 240.576 433.088 232.448c10.496-20.416 35.648-28.608 56.064-18.112C496.64 218.24 502.656 224.192 507.136 232.448c1.152 1.664 1.856 3.968 2.432 6.016-23.424 16.768-38.656 44.032-38.656 74.88 0 1.472 0 3.008 0 4.48-1.472-0.064-3.008-0.064-4.48-0.064-22.336 0-42.752 7.936-58.88 21.248C387.712 325.312 348.48 304.128 310.784 290.752 310.464 283.712 311.936 276.928 315.328 270.528zM249.664 814.144c-6.592-0.768-19.136-3.968-34.304-19.136s-18.56-27.968-19.136-34.304l93.76-93.76 53.44 53.44L249.664 814.144zM693.504 768l-313.152-69.952-66.56-66.56c-22.528-96.128-59.648-254.4-72.768-311.04 3.776-0.384 7.68-0.576 11.456-0.576 35.648 0 107.072 37.056 129.92 52.288C377.216 383.872 374.208 396.608 374.208 410.112c0 47.808 36.544 87.168 83.072 91.904C455.552 508.736 454.784 515.84 454.784 522.752c0 51.008 41.28 92.416 92.224 92.416 24.576 0 47.232-9.92 63.744-26.048 35.264 45.376 77.248 117.952 82.688 173.632C693.696 764.032 693.696 765.952 693.504 768zM804.48 602.048c-8.256 3.968-17.28 5.248-26.24 3.392-10.304-2.048-20.416 3.968-23.808 13.888-3.584 9.728 0.96 20.8 10.304 25.472 8.256 4.096 14.784 10.496 18.752 18.752 10.304 20.608 1.664 45.568-18.752 55.68-12.16 6.016-26.048 5.44-37.696-0.576-14.272-48.96-43.328-99.968-70.336-137.984 6.208 1.344 12.544 2.24 19.136 2.24 37.888 0 70.336-22.848 84.544-55.296 8.064-5.248 21.376-5.248 25.344-4.672 0.576 0.192 1.344 0.192 2.048 0.192 15.168 0.576 28.864 9.536 35.648 23.232C833.536 566.848 825.152 591.936 804.48 602.048z" p-id="37881"></path>
    <path d="M586.624 486.208c37.888 0 68.8-30.912 68.8-68.8 0-38.08-30.912-68.864-68.8-68.864-38.08 0-68.8 30.784-68.8 68.864C517.824 455.296 548.544 486.208 586.624 486.208zM586.624 390.4c14.784 0 27.008 12.16 27.008 27.008s-12.16 27.008-27.008 27.008-27.008-12.16-27.008-27.008S571.84 390.4 586.624 390.4z" p-id="37882"></path>
</svg>