<svg t="1613304188059" class="icon" viewBox="0 0 1501 1024" version="1.1"
    xmlns="http://www.w3.org/2000/svg" p-id="15791" width="200" height="200">
    <path d="M0 1024h1501.866667V273.066667H0v750.933333zM68.266667 341.333333h1365.333333v614.4H68.266667V341.333333zM68.266667 136.533333h1365.333333v68.266667H68.266667zM136.533333 0h1228.8v68.266667H136.533333z" fill="" p-id="15792"></path>
    <path d="M792.098133 622.1824a436.4288 436.4288 0 0 0-46.421333-24.029867c-21.640533-9.762133-36.0448-18.158933-43.144533-25.258666a37.205333 37.205333 0 0 1-10.922667-27.374934 38.912 38.912 0 0 1 13.448533-30.173866 48.7424 48.7424 0 0 1 33.860267-12.0832c21.981867 0 39.7312 12.356267 53.316267 37.137066l45.192533-25.258666c-10.513067-18.8416-21.572267-32.836267-33.1776-41.984a95.300267 95.300267 0 0 0-44.782933-18.090667V409.6h-40.618667v45.4656a135.441067 135.441067 0 0 0-33.655467 13.448533 99.805867 99.805867 0 0 0-24.7808 20.2752 87.790933 87.790933 0 0 0-15.428266 26.077867 89.2928 89.2928 0 0 0-5.3248 31.1296c0 23.483733 7.509333 43.690667 22.528 60.552533 9.4208 11.264 29.149867 23.620267 59.118933 37.137067 14.5408 6.621867 26.487467 12.765867 35.84 18.432 9.352533 5.666133 16.452267 10.717867 21.230933 15.223467a49.425067 49.425067 0 0 1 14.1312 36.864 55.773867 55.773867 0 0 1-16.930133 41.984 59.1872 59.1872 0 0 1-42.666667 16.452266c-17.476267 0-31.470933-4.778667-41.984-14.404266-10.0352-10.0352-18.568533-26.8288-25.531733-50.312534L614.4 718.574933c7.5776 33.245867 19.319467 57.821867 35.2256 73.728 15.906133 15.906133 39.048533 26.350933 69.358933 31.3344v46.626134h40.618667v-47.991467c26.146133-6.9632 47.035733-20.411733 62.600533-40.3456 15.7696-20.0704 23.688533-43.281067 23.688534-69.563733a96.938667 96.938667 0 0 0-26.2144-68.4032 123.767467 123.767467 0 0 0-27.579734-21.777067z" fill="" p-id="15793"></path>
</svg>