<svg t="1613305275824" class="icon" viewBox="0 0 1024 1024" version="1.1"
    xmlns="http://www.w3.org/2000/svg" p-id="37122" width="200" height="200">
    <path d="M594.236212 4.064563a30.116797 30.116797 0 0 0-20.298721-3.614016C475.816968 17.556888 394.802784 53.034474 333.725921 98.631305c-44.874027-15.961902-91.073193-27.526752-135.826753-37.645996a30.116797 30.116797 0 0 0-33.971747 42.043048c22.708065 48.909678 30.538432 83.965629 31.080534 111.853783 0.542102 27.647219-6.023359 50.776919-16.383537 76.737598-3.433315 8.55317-7.228031 17.347275-11.263682 26.683482C146.459679 366.369627 120.318299 426.723688 120.318299 523.579306c0 59.269856 15.058398 106.974862 41.862348 144.440157a222.864296 222.864296 0 0 0 71.316574 63.305507A821.285046 821.285046 0 0 0 89.418466 722.832033a30.116797 30.116797 0 0 0-29.33376 30.116797c0 48.186875 8.071302 90.892492 26.864183 127.39405 19.033816 36.862959 48.006174 65.473916 86.49544 86.856841C248.495386 1009.062069 360.831038 1024 511.836656 1024c150.885151 0 263.281037-14.75723 338.392328-56.499111 38.489266-21.382926 67.461625-49.993883 86.49544-86.856841 18.792881-36.561791 26.864183-79.327643 26.864183-127.695218a30.116797 30.116797 0 0 0-29.33376-30.116797 820.381542 820.381542 0 0 0-142.874084 8.312236 252.981092 252.981092 0 0 0 56.860513-48.006174c48.849444-55.896775 68.425362-131.971803 45.59683-218.226309-7.830367-29.393994-15.720968-55.414906-22.768299-78.484372l-0.120467-0.301168-6.505228-21.62386c-8.613404-28.731424-15.178866-52.885095-18.672414-76.918299-6.625695-46.500334-2.590045-95.771414 27.526752-176.363961a30.116797 30.116797 0 0 0-32.224972-40.356508c-45.837765 6.083593-91.133427 15.660734-134.682315 28.67119-32.646608-38.188098-71.07564-71.677976-112.154951-95.470245zM503.403953 196.45066a422.659125 422.659125 0 0 0-103.300612-70.111903c46.379867-28.309789 104.324584-51.319022 173.171581-64.510178 24.81624 15.660734 48.969911 35.778754 71.196107 59.028921-51.258788 19.997553-99.024028 45.235429-141.067076 75.59316zM240.665019 133.325854c82.158621 21.503393 157.691548 49.993883 215.636264 101.553839-76.797832 71.015407-125.88821 163.955841-125.88821 276.833595 0 83.423527 15.781201 156.366408 65.71485 205.757955-37.645996-4.397052-74.810123-12.167186-107.516964-26.020912-32.285206-13.612792-58.848221-32.52614-77.460401-58.486819C192.719079 607.183534 180.551893 572.248049 180.551893 523.579306c0-83.604228 21.081758-132.513905 41.500946-179.85751l0.361401-0.783037c4.156118-9.637375 8.252002-19.214516 12.167186-29.032592 11.745551-29.514461 21.382926-61.197331 20.660123-100.228699a277.978034 277.978034 0 0 0-14.57653-80.351614zM507.499838 783.065626h119.623916c-47.162904 25.840212-88.362682 62.221302-115.287098 112.395886-29.213293-54.451168-75.231758-92.579033-127.39405-118.660179A999.877651 999.877651 0 0 0 507.620305 783.065626z m-173.051114 37.103894c66.437654 27.225584 119.322749 71.497275 140.284039 143.295719-129.502226-2.409344-216.660235-18.070078-271.954674-48.849445-29.33376-16.323304-49.271079-36.742492-62.281536-61.920134-9.878309-19.094049-16.26307-42.043048-18.853115-69.870968 66.859289 0.722803 145.765296 9.757842 212.805286 37.344828z m56.137709-308.395998c0-105.77019 51.439489-191.783761 134.923249-256.595108 72.882648-56.619578 169.738266-96.373749 275.086821-116.732704-18.371246 62.462236-21.262458 110.347943-14.395829 157.812014 4.156118 28.610957 11.805784 56.31841 20.479422 85.531703l6.926863 22.647831c6.987097 23.009233 14.456062 47.524305 21.985262 75.894328 18.009844 67.943493 2.288877 123.177699-32.706841 163.233038-35.778754 40.89861-94.024639 68.606063-164.618411 74.508955-104.625752 8.733871-164.016075-9.516908-197.807121-41.500946-33.971747-32.104505-49.873415-85.110067-49.873415-164.859345z m158.293883 451.691717c20.961291-71.798443 73.846386-116.009901 140.344273-143.355953 67.100223-27.466519 145.945997-36.561791 212.805285-37.284594-5.180089 56.378643-30.538432 103.963182-81.074416 132.032037-55.294439 30.719133-142.452448 46.199166-272.075142 48.60851z" p-id="37123"></path>
</svg>