<svg t="1613306224058" class="icon" viewBox="0 0 1024 1024" version="1.1"
    xmlns="http://www.w3.org/2000/svg" p-id="38619" width="200" height="200">
    <path d="M924.24 396.528l0 604.624-359.616 0 0-605.584 76.096 0-75.664-60.144 41.84-56.288 68.032 49.488-30.064-98.144 65.616-20.384 33.856 103.968 0.16 0 34.032-103.968 65.632 20.384-30.24 98.144 65.632-48.528 41.808 56.288-73.232 59.2 76.064 0 0 0.96zM856.624 467.392l-76.096 0 0 96.064 76.096 0 0-96.064zM708.256 467.392l-76.096 0 0 96.064 76.096 0 0-96.064zM856.624 634.144l-76.096 0 0 296.16 76.096 0 0-296.16zM708.256 634.144l-76.096 0 0 296.16 76.096 0 0-296.16z" p-id="38620"></path>
    <path d="M354.72 547.232l100.336 0 0 352.672c-30.144 3.952-30.144 48.112 0.8 52.064l0 52.048-252.432 0c-42.08 0-78.464-37.136-78.464-82.528l0-284.4c0-28.896 10.96-50.112 41.248-64.832 0 0 188.48-83.872 188.72-84.192l-0.224 59.152zM378.176 907.44l-176.16 0c-27.52 0-27.616 38.816-0.112 38.816l177.888 0c-12.944-8.272-13.744-29.728-1.616-38.816zM398.528 604.48l-43.808 0 0 198.112-110.384 49.536 154.192 0 0-247.648z" p-id="38621"></path>
    <path d="M380.848 173.408l16.608 25.264c101.904-66.976 488.992-61.776 492.896-61.712l0.48-30.24c-16.304-0.256-400.352-5.36-509.984 66.688z" p-id="38622"></path>
    <path d="M272.976 218.128c0 0-39.696 41.264-88.672 41.264-48.976 0-88.688-18.48-88.688-41.264 0-22.8 39.696-41.264 88.688-41.264 48.976 0 88.672 41.264 88.672 41.264z" p-id="38623"></path>
    <path d="M343.312 218.128c0 0 39.712 41.264 88.672 41.264 48.992 0 88.688-18.48 88.688-41.264 0-22.8-39.696-41.264-88.688-41.264-48.96 0-88.672 41.264-88.672 41.264z" p-id="38624"></path>
    <path d="M283.92 241.456c0 0 1.136 57.28-33.488 91.92-34.64 34.624-75.776 49.632-91.904 33.504s-1.12-57.248 33.52-91.888c34.624-34.64 91.872-33.52 91.872-33.52z" p-id="38625"></path>
    <path d="M333.648 191.728c0 0 57.264 1.136 91.888-33.504 34.624-34.624 49.616-75.76 33.488-91.888-16.096-16.112-57.232-1.12-91.872 33.52-34.608 34.624-33.504 91.856-33.504 91.856z" p-id="38626"></path>
    <path d="M308.144 250.24c0 0 41.296 39.728 41.296 88.688 0 48.976-18.496 88.688-41.296 88.688-22.8 0-41.248-39.712-41.248-88.688-0.032-48.96 41.248-88.688 41.248-88.688z" p-id="38627"></path>
    <path d="M308.144 179.904c0 0 41.296-39.712 41.296-88.656 0-48.976-18.496-88.688-41.296-88.688-22.8 0-41.248 39.712-41.248 88.688-0.032 48.96 41.248 88.656 41.248 88.656z" p-id="38628"></path>
    <path d="M331.488 239.296c0 0 57.264-1.12 91.888 33.504 34.624 34.64 49.632 75.776 33.504 91.92-16.112 16.112-57.264 1.104-91.872-33.52-34.64-34.624-33.52-91.888-33.52-91.888z" p-id="38629"></path>
    <path d="M281.744 189.568c0 0 1.12-57.248-33.488-91.888-34.64-34.624-75.76-49.6-91.92-33.472-16.096 16.096-1.104 57.248 33.536 91.872 34.608 34.608 91.872 33.504 91.872 33.504z" p-id="38630"></path>
</svg>