<svg t="1613304085791" class="icon" viewBox="0 0 1024 1024" version="1.1"
    xmlns="http://www.w3.org/2000/svg" p-id="14347" width="200" height="200">
    <path d="M785.066667 170.666667v-51.2c0-28.444444-22.755556-51.2-51.2-51.2H119.466667c-28.444444 0-51.2 22.755556-51.2 51.2v608.711111c0 28.444444 22.755556 51.2 51.2 51.2H170.666667V284.444444c0-62.577778 51.2-113.777778 113.777777-113.777777h500.622223zM853.333333 170.666667h56.888889c62.577778 0 113.777778 51.2 113.777778 113.777777v625.777778c0 62.577778-51.2 113.777778-113.777778 113.777778H284.444444c-62.577778 0-113.777778-51.2-113.777777-113.777778v-56.888889h-51.2C56.888889 853.333333 0 796.444444 0 733.866667V119.466667C0 56.888889 56.888889 0 119.466667 0h608.711111C796.444444 0 853.333333 56.888889 853.333333 119.466667V170.666667zM284.444444 238.933333c-22.755556 0-45.511111 22.755556-45.511111 45.511111v625.777778c0 22.755556 22.755556 45.511111 45.511111 45.511111h625.777778c22.755556 0 45.511111-22.755556 45.511111-45.511111V284.444444c0-22.755556-22.755556-45.511111-45.511111-45.511111H284.444444z m278.755556 324.266667V369.777778c0-17.066667 11.377778-28.444444 28.444444-28.444445h11.377778c17.066667 0 28.444444 11.377778 28.444445 28.444445v193.422222h193.422222c17.066667 0 28.444444 11.377778 28.444444 28.444444v11.377778c0 17.066667-11.377778 28.444444-28.444444 28.444445h-193.422222v193.422222c0 17.066667-11.377778 28.444444-28.444445 28.444444h-11.377778c-17.066667 0-28.444444-11.377778-28.444444-28.444444v-193.422222H369.777778c-17.066667 0-28.444444-11.377778-28.444445-28.444445v-11.377778c0-17.066667 11.377778-28.444444 28.444445-28.444444h193.422222z" p-id="14348"></path>
</svg>