<svg t="1613302937580" class="icon" viewBox="0 0 1024 1024" version="1.1"
    xmlns="http://www.w3.org/2000/svg" p-id="2129" width="200" height="200">
    <path d="M404.48 777.02144a20.48 20.48 0 0 0 20.48-20.48v-317.44a20.48 20.48 0 0 0-40.96 0v317.44a20.48 20.48 0 0 0 20.48 20.48zM517.12 777.02144a20.48 20.48 0 0 0 20.48-20.48v-317.44a20.48 20.48 0 0 0-40.96 0v317.44a20.48 20.48 0 0 0 20.48 20.48zM629.76 777.02144a20.48 20.48 0 0 0 20.48-20.48v-317.44a20.48 20.48 0 0 0-40.96 0v317.44a20.48 20.48 0 0 0 20.48 20.48z" p-id="2130"></path>
    <path d="M335.0528 855.04h377.23136c35.75808 0 60.83584-25.23136 60.83584-59.6992V373.76h40.96c31.05792 0 56.32-25.27232 56.32-56.32s-25.26208-56.32-56.32-56.32h-122.88v-26.23488c0-35.9424-19.61984-65.92512-53.68832-65.92512H412.20096c-33.18784 0-58.92096 27.65824-58.92096 65.92512V261.12h-122.88c-31.05792 0-56.32 25.27232-56.32 56.32s25.26208 56.32 56.32 56.32h30.72v421.5808c0 33.88416 37.2736 59.6992 73.9328 59.6992z m59.1872-620.15488c0-21.06368 12.84096-24.96512 17.96096-24.96512h225.31072c15.53408 0 12.72832 17.09056 12.72832 24.96512V261.12h-256v-26.23488z m-163.84 97.91488c-8.46848 0-15.36-6.89152-15.36-15.36s6.89152-15.36 15.36-15.36h583.68c8.46848 0 15.36 6.89152 15.36 15.36s-6.89152 15.36-15.36 15.36h-583.68z m501.76 40.96v421.5808c0 11.84768-6.79936 18.7392-19.87584 18.7392H335.0528c-13.79328 0-32.9728-7.5264-32.9728-18.7392V373.76h430.08z" p-id="2131"></path>
</svg>